<mxfile host="app.diagrams.net" modified="2021-07-25T00:19:57.711Z" agent="5.0 (Windows NT 10.0; Win64; x64) AppleWebKit/537.36 (KHTML, like Gecko) Chrome/91.0.4472.164 Safari/537.36" etag="QUSJQuEKS_90YxLu9B6Y" version="14.9.0" type="github">
  <diagram id="HoFtUoc1Gj6m5sX0rD7v" name="Page-1">
    <mxGraphModel dx="1240" dy="689" grid="1" gridSize="10" guides="1" tooltips="1" connect="1" arrows="1" fold="1" page="1" pageScale="1" pageWidth="827" pageHeight="1169" math="0" shadow="0">
      <root>
        <mxCell id="0" />
        <mxCell id="1" parent="0" />
        <mxCell id="ortIrm8L4AHsQ8bP48jy-1" value="DIAGRAMA DE COMPONENTES DATAWORLD" style="swimlane;childLayout=stackLayout;resizeParent=1;resizeParentMax=0;horizontal=0;startSize=20;horizontalStack=0;" parent="1" vertex="1">
          <mxGeometry x="200" y="130" width="1060" height="790" as="geometry" />
        </mxCell>
        <mxCell id="ortIrm8L4AHsQ8bP48jy-2" value="                                                                                                                                                                           COMPONENTES PAGINAS WEB" style="swimlane;startSize=20;horizontal=0;" parent="ortIrm8L4AHsQ8bP48jy-1" vertex="1">
          <mxGeometry x="20" width="1040" height="790" as="geometry" />
        </mxCell>
        <mxCell id="ortIrm8L4AHsQ8bP48jy-3" value="«execute»&lt;br&gt;&lt;b&gt;Navegador&lt;/b&gt;" style="html=1;dropTarget=0;gradientColor=#7ea6e0;fillColor=#dae8fc;strokeColor=#6c8ebf;" parent="ortIrm8L4AHsQ8bP48jy-2" vertex="1">
          <mxGeometry x="610" y="150" width="220" height="95" as="geometry" />
        </mxCell>
        <mxCell id="ortIrm8L4AHsQ8bP48jy-4" value="" style="shape=module;jettyWidth=8;jettyHeight=4;" parent="ortIrm8L4AHsQ8bP48jy-3" vertex="1">
          <mxGeometry x="1" width="20" height="20" relative="1" as="geometry">
            <mxPoint x="-27" y="7" as="offset" />
          </mxGeometry>
        </mxCell>
        <mxCell id="ortIrm8L4AHsQ8bP48jy-5" style="edgeStyle=orthogonalEdgeStyle;rounded=0;orthogonalLoop=1;jettySize=auto;html=1;entryX=0;entryY=0.5;entryDx=0;entryDy=0;" parent="ortIrm8L4AHsQ8bP48jy-2" source="ortIrm8L4AHsQ8bP48jy-6" target="ortIrm8L4AHsQ8bP48jy-3" edge="1">
          <mxGeometry relative="1" as="geometry" />
        </mxCell>
        <mxCell id="ortIrm8L4AHsQ8bP48jy-6" value="«file»&lt;br&gt;&lt;b&gt;WebContent&lt;/b&gt;" style="html=1;dropTarget=0;fillColor=#ffe6cc;strokeColor=#d79b00;" parent="ortIrm8L4AHsQ8bP48jy-2" vertex="1">
          <mxGeometry x="290" y="172.5" width="110" height="50" as="geometry" />
        </mxCell>
        <mxCell id="ortIrm8L4AHsQ8bP48jy-7" value="" style="shape=module;jettyWidth=8;jettyHeight=4;" parent="ortIrm8L4AHsQ8bP48jy-6" vertex="1">
          <mxGeometry x="1" width="20" height="20" relative="1" as="geometry">
            <mxPoint x="-27" y="7" as="offset" />
          </mxGeometry>
        </mxCell>
        <mxCell id="ortIrm8L4AHsQ8bP48jy-8" style="edgeStyle=orthogonalEdgeStyle;rounded=0;orthogonalLoop=1;jettySize=auto;html=1;entryX=0.5;entryY=0;entryDx=0;entryDy=0;" parent="ortIrm8L4AHsQ8bP48jy-2" source="ortIrm8L4AHsQ8bP48jy-9" target="ortIrm8L4AHsQ8bP48jy-6" edge="1">
          <mxGeometry relative="1" as="geometry">
            <Array as="points">
              <mxPoint x="100" y="110" />
              <mxPoint x="345" y="110" />
            </Array>
          </mxGeometry>
        </mxCell>
        <mxCell id="ortIrm8L4AHsQ8bP48jy-9" value="«primefaces»&lt;br&gt;&lt;b&gt;primefaces-8.0.jar&lt;/b&gt;" style="html=1;dropTarget=0;gradientColor=#ffd966;fillColor=#fff2cc;strokeColor=#d6b656;" parent="ortIrm8L4AHsQ8bP48jy-2" vertex="1">
          <mxGeometry x="30" y="10" width="140" height="65" as="geometry" />
        </mxCell>
        <mxCell id="ortIrm8L4AHsQ8bP48jy-10" value="" style="shape=module;jettyWidth=8;jettyHeight=4;" parent="ortIrm8L4AHsQ8bP48jy-9" vertex="1">
          <mxGeometry x="1" width="20" height="20" relative="1" as="geometry">
            <mxPoint x="-27" y="7" as="offset" />
          </mxGeometry>
        </mxCell>
        <mxCell id="ortIrm8L4AHsQ8bP48jy-11" style="edgeStyle=orthogonalEdgeStyle;rounded=0;orthogonalLoop=1;jettySize=auto;html=1;entryX=0.5;entryY=0;entryDx=0;entryDy=0;" parent="ortIrm8L4AHsQ8bP48jy-2" source="ortIrm8L4AHsQ8bP48jy-12" target="ortIrm8L4AHsQ8bP48jy-6" edge="1">
          <mxGeometry relative="1" as="geometry">
            <Array as="points">
              <mxPoint x="885" y="110" />
              <mxPoint x="345" y="110" />
            </Array>
          </mxGeometry>
        </mxCell>
        <mxCell id="ortIrm8L4AHsQ8bP48jy-12" value="«file»&lt;br&gt;&lt;b&gt;images&lt;/b&gt;" style="html=1;dropTarget=0;gradientColor=#ffd966;fillColor=#fff2cc;strokeColor=#d6b656;" parent="ortIrm8L4AHsQ8bP48jy-2" vertex="1">
          <mxGeometry x="840" y="10" width="90" height="60" as="geometry" />
        </mxCell>
        <mxCell id="ortIrm8L4AHsQ8bP48jy-13" value="" style="shape=module;jettyWidth=8;jettyHeight=4;" parent="ortIrm8L4AHsQ8bP48jy-12" vertex="1">
          <mxGeometry x="1" width="20" height="20" relative="1" as="geometry">
            <mxPoint x="-27" y="7" as="offset" />
          </mxGeometry>
        </mxCell>
        <mxCell id="ortIrm8L4AHsQ8bP48jy-14" value="                                                                                                           SISTEMA DE CONTROL" style="swimlane;startSize=20;horizontal=0;" parent="ortIrm8L4AHsQ8bP48jy-2" vertex="1">
          <mxGeometry y="270" width="1040" height="520" as="geometry">
            <mxRectangle y="270" width="50" height="40" as="alternateBounds" />
          </mxGeometry>
        </mxCell>
        <mxCell id="ortIrm8L4AHsQ8bP48jy-15" style="edgeStyle=orthogonalEdgeStyle;rounded=0;orthogonalLoop=1;jettySize=auto;html=1;entryX=0.5;entryY=0;entryDx=0;entryDy=0;" parent="ortIrm8L4AHsQ8bP48jy-14" source="ortIrm8L4AHsQ8bP48jy-16" target="ortIrm8L4AHsQ8bP48jy-33" edge="1">
          <mxGeometry relative="1" as="geometry">
            <Array as="points">
              <mxPoint x="200" y="190" />
              <mxPoint x="660" y="190" />
            </Array>
          </mxGeometry>
        </mxCell>
        <mxCell id="ortIrm8L4AHsQ8bP48jy-16" value="«file»&lt;br&gt;&lt;b&gt;com.controller.proyecto&lt;/b&gt;" style="html=1;dropTarget=0;fillColor=#d5e8d4;strokeColor=#82b366;" parent="ortIrm8L4AHsQ8bP48jy-14" vertex="1">
          <mxGeometry x="110" y="60" width="180" height="90" as="geometry" />
        </mxCell>
        <mxCell id="ortIrm8L4AHsQ8bP48jy-17" value="" style="shape=module;jettyWidth=8;jettyHeight=4;" parent="ortIrm8L4AHsQ8bP48jy-16" vertex="1">
          <mxGeometry x="1" width="20" height="20" relative="1" as="geometry">
            <mxPoint x="-27" y="7" as="offset" />
          </mxGeometry>
        </mxCell>
        <mxCell id="ortIrm8L4AHsQ8bP48jy-18" style="edgeStyle=orthogonalEdgeStyle;rounded=0;orthogonalLoop=1;jettySize=auto;html=1;entryX=0.5;entryY=0;entryDx=0;entryDy=0;" parent="ortIrm8L4AHsQ8bP48jy-14" source="ortIrm8L4AHsQ8bP48jy-19" target="ortIrm8L4AHsQ8bP48jy-33" edge="1">
          <mxGeometry relative="1" as="geometry">
            <Array as="points">
              <mxPoint x="440" y="190" />
              <mxPoint x="660" y="190" />
            </Array>
          </mxGeometry>
        </mxCell>
        <mxCell id="ortIrm8L4AHsQ8bP48jy-19" value="«file»&lt;br&gt;&lt;b&gt;com.graphisc.proyecto&lt;/b&gt;" style="html=1;dropTarget=0;fillColor=#d5e8d4;strokeColor=#82b366;" parent="ortIrm8L4AHsQ8bP48jy-14" vertex="1">
          <mxGeometry x="350" y="60" width="180" height="90" as="geometry" />
        </mxCell>
        <mxCell id="ortIrm8L4AHsQ8bP48jy-20" value="" style="shape=module;jettyWidth=8;jettyHeight=4;" parent="ortIrm8L4AHsQ8bP48jy-19" vertex="1">
          <mxGeometry x="1" width="20" height="20" relative="1" as="geometry">
            <mxPoint x="-27" y="7" as="offset" />
          </mxGeometry>
        </mxCell>
        <mxCell id="ortIrm8L4AHsQ8bP48jy-21" style="edgeStyle=orthogonalEdgeStyle;rounded=0;orthogonalLoop=1;jettySize=auto;html=1;" parent="ortIrm8L4AHsQ8bP48jy-14" source="ortIrm8L4AHsQ8bP48jy-22" target="ortIrm8L4AHsQ8bP48jy-33" edge="1">
          <mxGeometry relative="1" as="geometry">
            <Array as="points">
              <mxPoint x="660" y="180" />
              <mxPoint x="660" y="180" />
            </Array>
          </mxGeometry>
        </mxCell>
        <mxCell id="ortIrm8L4AHsQ8bP48jy-22" value="«file»&lt;br&gt;&lt;b&gt;com.converter.proyecto&lt;/b&gt;" style="html=1;dropTarget=0;fillColor=#d5e8d4;strokeColor=#82b366;" parent="ortIrm8L4AHsQ8bP48jy-14" vertex="1">
          <mxGeometry x="570" y="60" width="180" height="90" as="geometry" />
        </mxCell>
        <mxCell id="ortIrm8L4AHsQ8bP48jy-23" value="" style="shape=module;jettyWidth=8;jettyHeight=4;" parent="ortIrm8L4AHsQ8bP48jy-22" vertex="1">
          <mxGeometry x="1" width="20" height="20" relative="1" as="geometry">
            <mxPoint x="-27" y="7" as="offset" />
          </mxGeometry>
        </mxCell>
        <mxCell id="ortIrm8L4AHsQ8bP48jy-24" value="BASE DE DATOS " style="swimlane;startSize=20;horizontal=0;" parent="ortIrm8L4AHsQ8bP48jy-14" vertex="1">
          <mxGeometry y="400" width="1040" height="120" as="geometry">
            <mxRectangle y="400" width="30" height="120" as="alternateBounds" />
          </mxGeometry>
        </mxCell>
        <mxCell id="ortIrm8L4AHsQ8bP48jy-25" value="&amp;lt;&amp;lt;Database&amp;gt;&amp;gt;&lt;br&gt;dataworld" style="shape=datastore;whiteSpace=wrap;html=1;fillColor=#fff2cc;strokeColor=#d6b656;gradientColor=#ffd966;" parent="ortIrm8L4AHsQ8bP48jy-24" vertex="1">
          <mxGeometry x="420" y="30" width="100" height="80" as="geometry" />
        </mxCell>
        <mxCell id="ortIrm8L4AHsQ8bP48jy-26" value="SISTEMA LÓGICO" style="swimlane;startSize=20;horizontal=0;" parent="ortIrm8L4AHsQ8bP48jy-24" vertex="1">
          <mxGeometry y="-190" width="1040" height="190" as="geometry">
            <mxRectangle y="-190" width="50" height="40" as="alternateBounds" />
          </mxGeometry>
        </mxCell>
        <mxCell id="ortIrm8L4AHsQ8bP48jy-27" value="«data-source»&lt;br&gt;WildFly" style="html=1;dropTarget=0;fillColor=#dae8fc;strokeColor=#6c8ebf;" parent="ortIrm8L4AHsQ8bP48jy-26" vertex="1">
          <mxGeometry x="60" y="40" width="180" height="90" as="geometry" />
        </mxCell>
        <mxCell id="ortIrm8L4AHsQ8bP48jy-28" value="" style="shape=module;jettyWidth=8;jettyHeight=4;" parent="ortIrm8L4AHsQ8bP48jy-27" vertex="1">
          <mxGeometry x="1" width="20" height="20" relative="1" as="geometry">
            <mxPoint x="-27" y="7" as="offset" />
          </mxGeometry>
        </mxCell>
        <mxCell id="ortIrm8L4AHsQ8bP48jy-29" style="edgeStyle=orthogonalEdgeStyle;rounded=0;orthogonalLoop=1;jettySize=auto;html=1;entryX=1;entryY=0.5;entryDx=0;entryDy=0;" parent="ortIrm8L4AHsQ8bP48jy-26" source="ortIrm8L4AHsQ8bP48jy-30" target="ortIrm8L4AHsQ8bP48jy-27" edge="1">
          <mxGeometry relative="1" as="geometry" />
        </mxCell>
        <mxCell id="ortIrm8L4AHsQ8bP48jy-30" value="«file»&lt;br&gt;&lt;b&gt;com.entities.proyecto&lt;/b&gt;" style="html=1;dropTarget=0;fillColor=#dae8fc;strokeColor=#6c8ebf;" parent="ortIrm8L4AHsQ8bP48jy-26" vertex="1">
          <mxGeometry x="320" y="40" width="180" height="90" as="geometry" />
        </mxCell>
        <mxCell id="ortIrm8L4AHsQ8bP48jy-31" value="" style="shape=module;jettyWidth=8;jettyHeight=4;" parent="ortIrm8L4AHsQ8bP48jy-30" vertex="1">
          <mxGeometry x="1" width="20" height="20" relative="1" as="geometry">
            <mxPoint x="-27" y="7" as="offset" />
          </mxGeometry>
        </mxCell>
        <mxCell id="ortIrm8L4AHsQ8bP48jy-32" style="edgeStyle=orthogonalEdgeStyle;rounded=0;orthogonalLoop=1;jettySize=auto;html=1;entryX=1;entryY=0.5;entryDx=0;entryDy=0;" parent="ortIrm8L4AHsQ8bP48jy-26" source="ortIrm8L4AHsQ8bP48jy-33" target="ortIrm8L4AHsQ8bP48jy-30" edge="1">
          <mxGeometry relative="1" as="geometry" />
        </mxCell>
        <mxCell id="ortIrm8L4AHsQ8bP48jy-33" value="«file»&lt;br&gt;&lt;b&gt;com.daos.proyecto&lt;/b&gt;" style="html=1;dropTarget=0;fillColor=#f8cecc;strokeColor=#b85450;" parent="ortIrm8L4AHsQ8bP48jy-26" vertex="1">
          <mxGeometry x="570" y="40" width="180" height="90" as="geometry" />
        </mxCell>
        <mxCell id="ortIrm8L4AHsQ8bP48jy-34" value="" style="shape=module;jettyWidth=8;jettyHeight=4;" parent="ortIrm8L4AHsQ8bP48jy-33" vertex="1">
          <mxGeometry x="1" width="20" height="20" relative="1" as="geometry">
            <mxPoint x="-27" y="7" as="offset" />
          </mxGeometry>
        </mxCell>
        <mxCell id="ortIrm8L4AHsQ8bP48jy-35" style="edgeStyle=orthogonalEdgeStyle;rounded=0;orthogonalLoop=1;jettySize=auto;html=1;" parent="ortIrm8L4AHsQ8bP48jy-24" source="ortIrm8L4AHsQ8bP48jy-27" target="ortIrm8L4AHsQ8bP48jy-25" edge="1">
          <mxGeometry relative="1" as="geometry">
            <Array as="points">
              <mxPoint x="150" y="-40" />
              <mxPoint x="470" y="-40" />
            </Array>
          </mxGeometry>
        </mxCell>
        <mxCell id="ortIrm8L4AHsQ8bP48jy-36" style="edgeStyle=orthogonalEdgeStyle;rounded=0;orthogonalLoop=1;jettySize=auto;html=1;entryX=0.5;entryY=0;entryDx=0;entryDy=0;" parent="ortIrm8L4AHsQ8bP48jy-2" source="ortIrm8L4AHsQ8bP48jy-6" target="ortIrm8L4AHsQ8bP48jy-16" edge="1">
          <mxGeometry relative="1" as="geometry">
            <Array as="points">
              <mxPoint x="345" y="290" />
              <mxPoint x="200" y="290" />
            </Array>
          </mxGeometry>
        </mxCell>
        <mxCell id="ortIrm8L4AHsQ8bP48jy-37" style="edgeStyle=orthogonalEdgeStyle;rounded=0;orthogonalLoop=1;jettySize=auto;html=1;" parent="ortIrm8L4AHsQ8bP48jy-2" source="ortIrm8L4AHsQ8bP48jy-6" target="ortIrm8L4AHsQ8bP48jy-19" edge="1">
          <mxGeometry relative="1" as="geometry">
            <Array as="points">
              <mxPoint x="345" y="290" />
              <mxPoint x="440" y="290" />
            </Array>
          </mxGeometry>
        </mxCell>
        <mxCell id="ortIrm8L4AHsQ8bP48jy-38" style="edgeStyle=orthogonalEdgeStyle;rounded=0;orthogonalLoop=1;jettySize=auto;html=1;entryX=0.5;entryY=0;entryDx=0;entryDy=0;" parent="ortIrm8L4AHsQ8bP48jy-2" source="ortIrm8L4AHsQ8bP48jy-6" target="ortIrm8L4AHsQ8bP48jy-22" edge="1">
          <mxGeometry relative="1" as="geometry">
            <Array as="points">
              <mxPoint x="345" y="290" />
              <mxPoint x="650" y="290" />
              <mxPoint x="650" y="330" />
            </Array>
          </mxGeometry>
        </mxCell>
        <mxCell id="ortIrm8L4AHsQ8bP48jy-39" style="edgeStyle=orthogonalEdgeStyle;rounded=0;orthogonalLoop=1;jettySize=auto;html=1;" parent="ortIrm8L4AHsQ8bP48jy-2" source="ortIrm8L4AHsQ8bP48jy-40" target="ortIrm8L4AHsQ8bP48jy-6" edge="1">
          <mxGeometry relative="1" as="geometry">
            <Array as="points">
              <mxPoint x="240" y="110" />
              <mxPoint x="345" y="110" />
            </Array>
          </mxGeometry>
        </mxCell>
        <mxCell id="ortIrm8L4AHsQ8bP48jy-40" value="«xmlbeans»&lt;br&gt;&lt;b&gt;xmlbeans-5.0.1.jar&lt;/b&gt;" style="html=1;dropTarget=0;gradientColor=#ffd966;fillColor=#fff2cc;strokeColor=#d6b656;" parent="ortIrm8L4AHsQ8bP48jy-2" vertex="1">
          <mxGeometry x="180" y="10" width="140" height="65" as="geometry" />
        </mxCell>
        <mxCell id="ortIrm8L4AHsQ8bP48jy-41" value="" style="shape=module;jettyWidth=8;jettyHeight=4;" parent="ortIrm8L4AHsQ8bP48jy-40" vertex="1">
          <mxGeometry x="1" width="20" height="20" relative="1" as="geometry">
            <mxPoint x="-27" y="7" as="offset" />
          </mxGeometry>
        </mxCell>
        <mxCell id="ortIrm8L4AHsQ8bP48jy-42" style="edgeStyle=orthogonalEdgeStyle;rounded=0;orthogonalLoop=1;jettySize=auto;html=1;entryX=0.5;entryY=0;entryDx=0;entryDy=0;" parent="ortIrm8L4AHsQ8bP48jy-2" source="ortIrm8L4AHsQ8bP48jy-43" target="ortIrm8L4AHsQ8bP48jy-6" edge="1">
          <mxGeometry relative="1" as="geometry">
            <Array as="points">
              <mxPoint x="655" y="110" />
              <mxPoint x="345" y="110" />
            </Array>
          </mxGeometry>
        </mxCell>
        <mxCell id="ortIrm8L4AHsQ8bP48jy-43" value="«commons»&lt;br&gt;&lt;b&gt;commons-math3-3.6.1.jar&lt;/b&gt;" style="html=1;dropTarget=0;gradientColor=#ffd966;fillColor=#fff2cc;strokeColor=#d6b656;" parent="ortIrm8L4AHsQ8bP48jy-2" vertex="1">
          <mxGeometry x="580" y="10" width="150" height="65" as="geometry" />
        </mxCell>
        <mxCell id="ortIrm8L4AHsQ8bP48jy-44" value="" style="shape=module;jettyWidth=8;jettyHeight=4;" parent="ortIrm8L4AHsQ8bP48jy-43" vertex="1">
          <mxGeometry x="1" width="20" height="20" relative="1" as="geometry">
            <mxPoint x="-27" y="7" as="offset" />
          </mxGeometry>
        </mxCell>
        <mxCell id="ortIrm8L4AHsQ8bP48jy-45" style="edgeStyle=orthogonalEdgeStyle;rounded=0;orthogonalLoop=1;jettySize=auto;html=1;entryX=0.5;entryY=0;entryDx=0;entryDy=0;" parent="ortIrm8L4AHsQ8bP48jy-2" source="ortIrm8L4AHsQ8bP48jy-46" target="ortIrm8L4AHsQ8bP48jy-6" edge="1">
          <mxGeometry relative="1" as="geometry">
            <Array as="points">
              <mxPoint x="500" y="110" />
              <mxPoint x="345" y="110" />
            </Array>
          </mxGeometry>
        </mxCell>
        <mxCell id="ortIrm8L4AHsQ8bP48jy-46" value="«itext»&lt;br&gt;&lt;b&gt;itext-2.1.7.jar&lt;/b&gt;" style="html=1;dropTarget=0;gradientColor=#ffd966;fillColor=#fff2cc;strokeColor=#d6b656;" parent="ortIrm8L4AHsQ8bP48jy-2" vertex="1">
          <mxGeometry x="430" y="10" width="140" height="65" as="geometry" />
        </mxCell>
        <mxCell id="ortIrm8L4AHsQ8bP48jy-47" value="" style="shape=module;jettyWidth=8;jettyHeight=4;" parent="ortIrm8L4AHsQ8bP48jy-46" vertex="1">
          <mxGeometry x="1" width="20" height="20" relative="1" as="geometry">
            <mxPoint x="-27" y="7" as="offset" />
          </mxGeometry>
        </mxCell>
        <mxCell id="ortIrm8L4AHsQ8bP48jy-48" style="edgeStyle=orthogonalEdgeStyle;rounded=0;orthogonalLoop=1;jettySize=auto;html=1;entryX=0.5;entryY=0;entryDx=0;entryDy=0;" parent="ortIrm8L4AHsQ8bP48jy-2" source="ortIrm8L4AHsQ8bP48jy-49" target="ortIrm8L4AHsQ8bP48jy-6" edge="1">
          <mxGeometry relative="1" as="geometry">
            <Array as="points">
              <mxPoint x="985" y="110" />
              <mxPoint x="345" y="110" />
            </Array>
          </mxGeometry>
        </mxCell>
        <mxCell id="ortIrm8L4AHsQ8bP48jy-49" value="«html»&lt;br&gt;&lt;b&gt;Paginas web&lt;/b&gt;" style="html=1;dropTarget=0;gradientColor=#ffd966;fillColor=#fff2cc;strokeColor=#d6b656;" parent="ortIrm8L4AHsQ8bP48jy-2" vertex="1">
          <mxGeometry x="940" y="10" width="90" height="60" as="geometry" />
        </mxCell>
        <mxCell id="ortIrm8L4AHsQ8bP48jy-50" value="" style="shape=module;jettyWidth=8;jettyHeight=4;" parent="ortIrm8L4AHsQ8bP48jy-49" vertex="1">
          <mxGeometry x="1" width="20" height="20" relative="1" as="geometry">
            <mxPoint x="-27" y="7" as="offset" />
          </mxGeometry>
        </mxCell>
        <mxCell id="ortIrm8L4AHsQ8bP48jy-51" style="edgeStyle=orthogonalEdgeStyle;rounded=0;orthogonalLoop=1;jettySize=auto;html=1;entryX=0.5;entryY=0;entryDx=0;entryDy=0;" parent="ortIrm8L4AHsQ8bP48jy-2" source="ortIrm8L4AHsQ8bP48jy-52" target="ortIrm8L4AHsQ8bP48jy-6" edge="1">
          <mxGeometry relative="1" as="geometry">
            <Array as="points">
              <mxPoint x="375" y="110" />
              <mxPoint x="345" y="110" />
            </Array>
          </mxGeometry>
        </mxCell>
        <mxCell id="ortIrm8L4AHsQ8bP48jy-52" value="«poi»&lt;br&gt;&lt;b&gt;poi-5.0.0.jar&lt;/b&gt;" style="html=1;dropTarget=0;gradientColor=#ffd966;fillColor=#fff2cc;strokeColor=#d6b656;" parent="ortIrm8L4AHsQ8bP48jy-2" vertex="1">
          <mxGeometry x="330" y="10" width="90" height="65" as="geometry" />
        </mxCell>
        <mxCell id="ortIrm8L4AHsQ8bP48jy-53" value="" style="shape=module;jettyWidth=8;jettyHeight=4;" parent="ortIrm8L4AHsQ8bP48jy-52" vertex="1">
          <mxGeometry x="1" width="20" height="20" relative="1" as="geometry">
            <mxPoint x="-27" y="7" as="offset" />
          </mxGeometry>
        </mxCell>
        <mxCell id="ortIrm8L4AHsQ8bP48jy-54" style="edgeStyle=orthogonalEdgeStyle;rounded=0;orthogonalLoop=1;jettySize=auto;html=1;entryX=0.5;entryY=0;entryDx=0;entryDy=0;" parent="ortIrm8L4AHsQ8bP48jy-2" source="ortIrm8L4AHsQ8bP48jy-55" target="ortIrm8L4AHsQ8bP48jy-6" edge="1">
          <mxGeometry relative="1" as="geometry">
            <Array as="points">
              <mxPoint x="785" y="110" />
              <mxPoint x="345" y="110" />
            </Array>
          </mxGeometry>
        </mxCell>
        <mxCell id="ortIrm8L4AHsQ8bP48jy-55" value="«file»&lt;br&gt;&lt;b&gt;css&lt;/b&gt;" style="html=1;dropTarget=0;gradientColor=#ffd966;fillColor=#fff2cc;strokeColor=#d6b656;" parent="ortIrm8L4AHsQ8bP48jy-2" vertex="1">
          <mxGeometry x="740" y="10" width="90" height="65" as="geometry" />
        </mxCell>
        <mxCell id="ortIrm8L4AHsQ8bP48jy-56" value="" style="shape=module;jettyWidth=8;jettyHeight=4;" parent="ortIrm8L4AHsQ8bP48jy-55" vertex="1">
          <mxGeometry x="1" width="20" height="20" relative="1" as="geometry">
            <mxPoint x="-27" y="7" as="offset" />
          </mxGeometry>
        </mxCell>
      </root>
    </mxGraphModel>
  </diagram>
</mxfile>
